<?xml version="1.0" standalone="no"?><!DOCTYPE svg PUBLIC "-//W3C//DTD SVG 1.1//EN" "http://www.w3.org/Graphics/SVG/1.1/DTD/svg11.dtd"><svg t="1691484748595" class="icon" viewBox="0 0 1024 1024" version="1.1" xmlns="http://www.w3.org/2000/svg" p-id="1229" xmlns:xlink="http://www.w3.org/1999/xlink" width="200" height="200"><path d="M512 42.666667c259.2 0 469.333333 210.133333 469.333333 469.333333s-210.133333 469.333333-469.333333 469.333333S42.666667 771.2 42.666667 512 252.8 42.666667 512 42.666667z m0 74.666666C294.037333 117.333333 117.333333 294.037333 117.333333 512S294.037333 906.666667 512 906.666667 906.666667 729.962667 906.666667 512 729.962667 117.333333 512 117.333333z" fill="#000000" p-id="1230"></path><path d="M682.666667 474.666667a37.333333 37.333333 0 0 1 3.072 74.538666L682.666667 549.333333H341.333333a37.333333 37.333333 0 0 1-3.072-74.538666L341.333333 474.666667h341.333334z" fill="#000000" p-id="1231"></path></svg>