<?xml version="1.0" standalone="no"?><!DOCTYPE svg PUBLIC "-//W3C//DTD SVG 1.1//EN" "http://www.w3.org/Graphics/SVG/1.1/DTD/svg11.dtd"><svg t="1691484819692" class="icon" viewBox="0 0 1024 1024" version="1.1" xmlns="http://www.w3.org/2000/svg" p-id="3472" xmlns:xlink="http://www.w3.org/1999/xlink" width="200" height="200"><path d="M441.962667 67.456L118.528 293.866667a165.333333 165.333333 0 0 0-70.528 135.445333V853.333333A122.666667 122.666667 0 0 0 170.666667 976h171.882666a80 80 0 0 0 80-80v-149.333333a48 48 0 0 1 48-48h84.8a48 48 0 0 1 48 47.616l1.194667 150.357333a80 80 0 0 0 80 79.36h169.578667a122.666667 122.666667 0 0 0 122.666666-121.536l3.925334-423.573333a165.376 165.376 0 0 0-71.317334-137.536L582.058667 67.050667a122.666667 122.666667 0 0 0-140.096 0.426666v-0.021333z m97.642666 61.013333L866.944 354.773333a90.666667 90.666667 0 0 1 39.104 75.413334l-3.925333 423.594666a48 48 0 0 1-48 47.552h-169.6a5.333333 5.333333 0 0 1-5.333334-5.290666l-1.173333-150.357334a122.666667 122.666667 0 0 0-122.666667-121.685333h-84.8a122.666667 122.666667 0 0 0-122.666666 122.666667v149.333333a5.333333 5.333333 0 0 1-5.333334 5.333333H170.666667A48 48 0 0 1 122.666667 853.333333V429.312a90.666667 90.666667 0 0 1 38.677333-74.282667L484.757333 128.64a48 48 0 0 1 54.826667-0.149333l0.021333-0.021334z" fill="#000000" p-id="3473"></path></svg>