<?xml version="1.0" standalone="no"?><!DOCTYPE svg PUBLIC "-//W3C//DTD SVG 1.1//EN" "http://www.w3.org/Graphics/SVG/1.1/DTD/svg11.dtd"><svg t="1691484837811" class="icon" viewBox="0 0 1024 1024" version="1.1" xmlns="http://www.w3.org/2000/svg" p-id="4169" xmlns:xlink="http://www.w3.org/1999/xlink" width="200" height="200"><path d="M913.834667 744a462.186667 462.186667 0 0 0 61.461333-204.949333 37.333333 37.333333 0 1 0-74.538667-4.309334 387.52 387.52 0 0 1-51.584 171.925334c-107.52 186.218667-345.621333 250.026667-531.84 142.506666-186.218667-107.52-250.026667-345.621333-142.506666-531.84 107.52-186.218667 345.621333-250.026667 531.84-142.506666a388.330667 388.330667 0 0 1 114.346666 100.16l3.306667 4.416-114.304-22.677334a37.333333 37.333333 0 0 0-43.114667 26.24l-0.768 3.136a37.333333 37.333333 0 0 0 26.24 43.093334l3.136 0.768L891.733333 368.853333c29.930667 5.930667 53.973333-24.618667 41.130667-52.330666a461.973333 461.973333 0 0 0-188.864-206.357334C522.069333-17.962667 238.293333 58.069333 110.165333 280S58.069333 785.706667 280 913.834667s505.706667 52.096 633.834667-169.834667z" fill="#000000" p-id="4170"></path></svg>