<?xml version="1.0" standalone="no"?><!DOCTYPE svg PUBLIC "-//W3C//DTD SVG 1.1//EN" "http://www.w3.org/Graphics/SVG/1.1/DTD/svg11.dtd"><svg t="1691484504286" class="icon" viewBox="0 0 1024 1024" version="1.1" xmlns="http://www.w3.org/2000/svg" p-id="951" xmlns:xlink="http://www.w3.org/1999/xlink" width="200" height="200"><path d="M512 981.333333C253.866667 981.333333 42.666667 770.133333 42.666667 512S253.866667 42.666667 512 42.666667s469.333333 211.2 469.333333 469.333333-211.2 469.333333-469.333333 469.333333z m0-864C294.4 117.333333 117.333333 294.4 117.333333 512S294.4 906.666667 512 906.666667 906.666667 729.6 906.666667 512 729.6 117.333333 512 117.333333z m102.4 541.866667c-8.533333 0-17.066667-2.133333-23.466667-8.533333l-102.4-89.6c-8.533333-6.4-12.8-17.066667-12.8-27.733334v-206.933333c0-21.333333 17.066667-38.4 38.4-38.4s38.4 17.066667 38.4 38.4v189.866667l89.6 78.933333c14.933333 12.8 17.066667 36.266667 4.266667 53.333333-10.666667 6.4-21.333333 10.666667-32 10.666667z" fill="#000000" p-id="952"></path></svg>